<svg xmlns="http://www.w3.org/2000/svg" width="150.979" height="42" viewBox="0 0 150.979 42">
  <g id="Group_4205" data-name="Group 4205" transform="translate(-57.62 -52.431)">
    <path id="Path_5575" data-name="Path 5575" d="M125.988,72.793c7.3,0,9.578-4.582,9.785-8.407a29.109,29.109,0,0,0,0-3.48c-.207-3.859-2.412-8.476-9.785-8.476s-9.578,4.617-9.785,8.476a27.959,27.959,0,0,0,0,3.411C116.444,68.211,118.649,72.793,125.988,72.793Zm-3.066-11.542c.069-1.723.827-3.2,3.066-3.2,2.206,0,3,1.481,3.067,3.2.034,1,.034,1.654,0,2.722-.069,1.723-.861,3.2-3.067,3.2s-3-1.481-3.066-3.2C122.887,62.87,122.887,62.25,122.922,61.251Z" transform="translate(-19.856 0)" fill="#fff"/>
    <path id="Path_5576" data-name="Path 5576" d="M152.49,72.575h6.719V58.828h5.444V53.108H147.047v5.719h5.444Z" transform="translate(-30.337 -0.23)" fill="#fff"/>
    <path id="Path_5577" data-name="Path 5577" d="M192.714,70.4a4.84,4.84,0,0,0,1.206-3.376,4.557,4.557,0,0,0-1.1-3.342,5.247,5.247,0,0,0-2.229-1.271c1.7-.609,2.711-1.836,2.711-4.172,0-3.273-2.067-5.134-6.684-5.134H176.038V72.575h10.474C189.923,72.575,191.681,71.61,192.714,70.4Zm-10.336-12.92h2.515c1.344,0,2.068.31,2.068,1.619,0,1.344-.724,1.654-2.068,1.654h-2.515Zm0,10.715V64.478h2.928c1.275,0,2.068.344,2.068,1.826,0,1.551-.793,1.9-2.068,1.9Z" transform="translate(-40.172 -0.23)" fill="#fff"/>
    <path id="Path_5578" data-name="Path 5578" d="M210.061,72.575l.788-2.722h6.865l.788,2.722h6.891l-6.581-19.467h-9.13L203.1,72.575ZM214.4,58.414l1.826,6.306h-3.893l1.826-6.306Z" transform="translate(-49.353 -0.23)" fill="#fff"/>
    <path id="Path_5579" data-name="Path 5579" d="M151.115,94.68l-7.132-9.451h-6.374v19.88h6.374V95.483l7.27,9.626h6.236V85.229h-6.374Z" transform="translate(-27.135 -11.126)" fill="#fff"/>
    <path id="Path_5580" data-name="Path 5580" d="M247.979,90.6l1.752-5.375H233.814v19.88H248l1.767-5.375h-9.439V97.426h5.428l1.467-4.548h-6.894V90.6Z" transform="translate(-59.772 -11.126)" fill="#fff"/>
    <path id="Path_5581" data-name="Path 5581" d="M245.277,66.856V53.108h-6.719V72.575h13.2l1.853-5.719Z" transform="translate(-61.381 -0.23)" fill="#fff"/>
    <path id="Path_5582" data-name="Path 5582" d="M210.884,97.437h4.465v2.021a10.567,10.567,0,0,1-2.894.321c-2.825,0-3.721-1.585-3.859-3.135a27.562,27.562,0,0,1,0-3.411c.069-1.516.792-2.963,4.444-2.963a37.484,37.484,0,0,1,5.478.482l1.62-5.34a35.731,35.731,0,0,0-7.994-.862c-7.132,0-9.75,3.342-10.336,8.234a27.488,27.488,0,0,0,0,4.134c.206,3.653,2.274,8.408,9.44,8.408a26.063,26.063,0,0,0,9.888-1.792V92.579h-8.676Z" transform="translate(-48.887 -10.896)" fill="#fff"/>
    <path id="Path_5583" data-name="Path 5583" d="M277.039,105.109l-4.372-7.278a5.8,5.8,0,0,0,2.822-2.025,6.175,6.175,0,0,0,1.206-3.963,6.072,6.072,0,0,0-1.206-4c-1.068-1.413-2.825-2.619-6.3-2.619h-9.82v19.88h6.512V97.672l4.134,7.437ZM265.876,94.566V90.6h2.136c1.55,0,2.2.414,2.2,2.033,0,1.55-.655,1.929-2.2,1.929Z" transform="translate(-68.439 -11.126)" fill="#fff"/>
    <path id="Path_5584" data-name="Path 5584" d="M74.882,85.229l-2.8,9.347L69.2,85.229H61.238l-3.618,19.88h6.891l1.561-11.39,3.71,11.39h4.651L78.172,93.9l1.293,11.213h6.96l-3.618-19.88Z" transform="translate(0 -11.126)" fill="#fff"/>
    <path id="Path_5585" data-name="Path 5585" d="M66.373,67.269h5.505l1.7-5.237h-7.2v-3.2H74.62l1.848-5.719H59.654V72.575h6.719Z" transform="translate(-0.69 -0.23)" fill="#fff"/>
    <path id="Path_5586" data-name="Path 5586" d="M84.083,64.386c.241,3.824,2.446,8.407,9.785,8.407,7.3,0,9.544-4.582,9.785-8.476a28.238,28.238,0,0,0,0-3.411c-.207-3.859-2.309-8.476-9.785-8.476-7.373,0-9.578,4.617-9.785,8.476A29.386,29.386,0,0,0,84.083,64.386Zm6.719-3.1c.069-1.757.793-3.238,3.067-3.238,2.2,0,3,1.481,3.067,3.238.034,1.034.034,1.62,0,2.688-.069,1.723-.862,3.2-3.067,3.2s-3-1.481-3.067-3.2C90.767,62.9,90.767,62.25,90.8,61.285Z" transform="translate(-8.96 0)" fill="#fff"/>
    <path id="Path_5587" data-name="Path 5587" d="M175.808,85.229l-6.34,19.88h6.96l.756-2.791h6.585l.756,2.791h6.891l-6.34-19.88ZM178.6,97.081l1.754-6.477h.241l1.754,6.477Z" transform="translate(-37.943 -11.126)" fill="#fff"/>
    <path id="Path_5588" data-name="Path 5588" d="M108.96,85.229l-6.34,19.88h6.96l.756-2.791h6.585l.756,2.791h6.891l-6.34-19.88Zm2.794,11.852,1.754-6.477h.241l1.754,6.477Z" transform="translate(-15.266 -11.126)" fill="#fff"/>
    <path id="Path_5589" data-name="Path 5589" d="M269.773,66.856V53.108h-6.719V72.575h13.2l1.853-5.719Z" transform="translate(-69.691 -0.23)" fill="#fff"/>
    <path id="Path_5590" data-name="Path 5590" d="M278.822,53.644v1.433h-.709V53.644h-.759V53.1h2.231v.542Z" transform="translate(-74.542 -0.228)" fill="#fff"/>
    <path id="Path_5591" data-name="Path 5591" d="M282.149,53.1l.353,1a1.185,1.185,0,0,1,.073.248h.005a1.273,1.273,0,0,1,.073-.253l.339-1h1.082v1.975h-.651V53.992a2.518,2.518,0,0,1,.039-.417h-.014c-.017.069-.081.258-.134.392l-.428,1.109h-.662l-.4-1.1c-.055-.153-.1-.3-.126-.4h-.011a2.376,2.376,0,0,1,.027.417v1.085h-.617V53.1Z" transform="translate(-75.811 -0.228)" fill="#fff"/>
  </g>
</svg>
